:SAMPLES-PER-SECOND 30
:FULLY-SPECIFIED
:DEGREES
692
root  -7.0099 39.6589 9.70121 -53.548 -83.1019 51.5707
RightUpLeg  1.74217 21.2084 -2.8481
RightLeg  44.3103 8.9806 8.98759
RightFoot  42.355 -11.8799 23.8568
RightToes  -5.8209e-011 0 -3.6325e-017
Spine  -21.2099 10.2158 23.3367
Spine1  14.4222 8.90884 -12.0902
HEad  0.810862 -25.1454 -3.62173
LeftShoulder1  6.87384 -14.6071 -31.9347
LeftArm  -17.1582 2.12463 -40.501
LeftForeArm  109.036 -81.0216 -83.1669
LeftHand  -0.246645 0.021 5.37786
RightShoulder  5.68829 13.3419 27.7403
RightArm  54.7195 39.4232 85.2046
RightForeArm  49.5822 62.9797 17.1657
RightHand  -0.24729 -0.0210522 -5.37781
LeftUpLeg  -8.00072 -3.70053 -7.65911
LeftLeg  40.0054 -68.474 -39.1287
LeftFoot  5.93397 0.226363 -1.72778
LeftToes  -7.45818e-011 -3.37383e-011 1.08613e-011
693
root  -7.04008 39.6564 9.6848 -58.3224 -83.4211 56.3496
RightUpLeg  1.65358 21.5312 -3.06099
RightLeg  44.3739 9.18633 9.21588
RightFoot  42.2523 -11.8998 23.9452
RightToes  -5.8209e-011 0 -3.6325e-017
Spine  -21.4118 9.60261 22.6789
Spine1  14.7668 8.20395 -11.512
HEad  0.49115 -23.7956 -3.54756
LeftShoulder1  7.0734 -14.8393 -32.5415
LeftArm  -16.2356 3.98977 -40.4244
LeftForeArm  109.303 -81.013 -83.9389
LeftHand  -0.246645 0.021 5.37786
RightShoulder  5.74708 13.387 28.0057
RightArm  53.874 38.0201 83.609
RightForeArm  50.0409 63.542 17.6136
RightHand  -0.24729 -0.0210522 -5.37781
LeftUpLeg  -7.97656 -3.62716 -7.66124
LeftLeg  39.2973 -67.9802 -38.3392
LeftFoot  5.79053 0.171981 -1.37571
LeftToes  -7.45818e-011 -3.37383e-011 1.08613e-011
694
root  -7.07073 39.6529 9.66565 -63.8253 -83.708 61.8498
RightUpLeg  1.53706 21.8137 -3.30069
RightLeg  44.4631 9.4042 9.4653
RightFoot  42.1883 -11.9032 23.983
RightToes  -5.8209e-011 0 -3.6325e-017
Spine  -21.6946 9.05523 21.8949
Spine1  15.2909 7.535 -10.7336
HEad  0.0937297 -22.5731 -3.51838
LeftShoulder1  7.24594 -15.0549 -33.021
LeftArm  -15.212 5.56416 -40.5756
LeftForeArm  108.073 -80.9869 -82.8489
LeftHand  -0.246645 0.021 5.37786
RightShoulder  5.75367 13.3641 28.094
RightArm  53.1496 36.7366 82.1647
RightForeArm  50.4319 64.0187 18.0099
RightHand  -0.24729 -0.0210522 -5.37781
LeftUpLeg  -7.93795 -3.42324 -7.63898
LeftLeg  38.7231 -67.5781 -37.7242
LeftFoot  5.64371 0.138108 -1.155
LeftToes  -7.45818e-011 -3.37383e-011 1.08613e-011
695
root  -7.10226 39.6504 9.64761 -69.6071 -83.9273 67.6334
RightUpLeg  1.41178 22.036 -3.54783
RightLeg  44.5448 9.55383 9.64404
RightFoot  42.1567 -11.8891 23.9714
RightToes  -5.8209e-011 0 -3.6325e-017
Spine  -21.8927 8.51868 21.2514
Spine1  15.6943 6.92878 -10.1906
HEad  -0.315 -21.4407 -3.39012
LeftShoulder1  7.36418 -15.2325 -33.2791
LeftArm  -14.189 7.11706 -40.8346
LeftForeArm  106.636 -80.9543 -81.4947
LeftHand  -0.246645 0.021 5.37786
RightShoulder  5.78613 13.3636 28.2931
RightArm  52.5082 35.4416 80.7951
RightForeArm  50.8762 64.5007 18.4211
RightHand  -0.24729 -0.0210522 -5.37781
LeftUpLeg  -7.88022 -3.20079 -7.61543
LeftLeg  38.1502 -67.2419 -37.1307
LeftFoot  5.52075 0.117647 -1.02029
LeftToes  -7.45818e-011 -3.37383e-011 1.08613e-011
696
root  -7.13559 39.6485 9.63398 -75.4243 -84.0611 73.4289
RightUpLeg  1.34051 22.2451 -3.77021
RightLeg  44.608 9.64149 9.75426
RightFoot  42.1374 -11.852 23.9095
RightToes  -5.8209e-011 0 -3.6325e-017
Spine  -21.909 7.94637 20.7141
Spine1  15.8345 6.33174 -9.82572
HEad  -0.564302 -20.3135 -3.22471
LeftShoulder1  7.49704 -15.4263 -33.5742
LeftArm  -13.3087 8.8038 -40.9389
LeftForeArm  105.597 -80.9227 -80.7659
LeftHand  -0.246645 0.021 5.37786
RightShoulder  5.85174 13.4252 28.5627
RightArm  51.8839 34.0627 79.4677
RightForeArm  51.3904 65.0116 18.8707
RightHand  -0.24729 -0.0210522 -5.37781
LeftUpLeg  -7.79026 -3.19654 -7.6436
LeftLeg  37.3372 -66.7494 -36.2299
LeftFoot  5.37895 0.0857007 -0.805563
LeftToes  -7.45818e-011 -3.37383e-011 1.08613e-011
697
root  -7.17069 39.6468 9.61976 -81.6218 -84.1354 79.5866
RightUpLeg  1.31745 22.5548 -3.93286
RightLeg  44.6568 9.71468 9.84523
RightFoot  42.1085 -11.8252 23.8719
RightToes  -5.8209e-011 0 -3.6325e-017
Spine  -21.8594 7.38989 20.084
Spine1  15.9054 5.72432 -9.31581
HEad  -0.659222 -19.1846 -3.10344
LeftShoulder1  7.69099 -15.6766 -34.0622
LeftArm  -12.5554 10.4822 -40.8653
LeftForeArm  104.518 -80.8863 -80.117
LeftHand  -0.246645 0.021 5.37786
RightShoulder  5.90402 13.4927 28.7369
RightArm  51.2306 32.6622 78.1754
RightForeArm  51.918 65.5428 19.3612
RightHand  -0.24729 -0.0210522 -5.37781
LeftUpLeg  -7.68605 -3.33091 -7.69614
LeftLeg  36.3814 -66.1119 -35.1227
LeftFoot  5.19152 0.0443574 -0.522446
LeftToes  -7.45818e-011 -3.37383e-011 1.08613e-011
698
root  -7.20643 39.6478 9.59948 -88.3988 -84.1836 86.3464
RightUpLeg  1.27847 22.9639 -4.0262
RightLeg  44.68 9.77827 9.91794
RightFoot  42.0862 -11.8221 23.8768
RightToes  -5.8209e-011 0 -3.6325e-017
Spine  -21.8494 6.91474 19.4847
Spine1  16.072 5.18271 -8.7974
HEad  -0.780538 -18.115 -2.93489
LeftShoulder1  7.84497 -15.8827 -34.4245
LeftArm  -11.7633 11.9471 -40.8837
LeftForeArm  103.111 -80.8415 -78.9494
LeftHand  -0.246645 0.021 5.37786
RightShoulder  5.95191 13.5387 28.9285
RightArm  50.5937 31.337 76.919
RightForeArm  52.4386 66.0992 19.9054
RightHand  -0.24729 -0.0210522 -5.37781
LeftUpLeg  -7.59842 -3.30591 -7.68013
LeftLeg  35.5997 -65.5893 -34.2231
LeftFoot  5.00487 0.013 -0.302325
LeftToes  -7.45818e-011 -3.37383e-011 1.08613e-011
699
root  -7.24254 39.6527 9.57572 -95.112 -84.203 93.0769
RightUpLeg  1.19848 23.3073 -4.08676
RightLeg  44.6751 9.81401 9.95276
RightFoot  42.1073 -11.7882 23.8013
RightToes  -5.8209e-011 0 -3.6325e-017
Spine  -21.9035 6.50077 19.1071
Spine1  16.3361 4.73389 -8.52757
HEad  -1.01004 -17.1691 -2.66639
LeftShoulder1  7.85993 -15.938 -34.3857
LeftArm  -10.8263 13.1088 -41.1619
LeftForeArm  101.367 -80.7826 -77.2574
LeftHand  -0.246645 0.021 5.37786
RightShoulder  6.03012 13.5942 29.2803
RightArm  50.0157 30.1296 75.7129
RightForeArm  52.9898 66.6722 20.4944
RightHand  -0.24729 -0.0210522 -5.37781
LeftUpLeg  -7.53708 -3.09489 -7.57661
LeftLeg  35.0751 -65.2498 -33.6473
LeftFoot  4.86014 -0.0110266 -0.129908
LeftToes  -7.45818e-011 -3.37383e-011 1.08613e-011
700
root  -7.28002 39.6565 9.55251 -100.972 -84.1619 98.9605
RightUpLeg  1.10525 23.4888 -4.16945
RightLeg  44.6835 9.83694 9.97905
RightFoot  42.157 -11.6978 23.6028
RightToes  -5.8209e-011 0 -3.6325e-017
Spine  -22.1112 6.09894 18.6996
Spine1  16.7705 4.27796 -8.18995
HEad  -1.26412 -16.3564 -2.46705
LeftShoulder1  7.82464 -15.9258 -34.2314
LeftArm  -9.81196 13.9388 -41.5369
LeftForeArm  98.7929 -80.6792 -74.903
LeftHand  -0.246645 0.021 5.37786
RightShoulder  6.09615 13.6455 29.5657
RightArm  49.4399 29.0533 74.5982
RightForeArm  53.6229 67.2068 21.0587
RightHand  -0.24729 -0.0210522 -5.37781
LeftUpLeg  -7.49692 -2.92415 -7.46893
LeftLeg  34.6853 -64.9005 -33.213
LeftFoot  4.73151 -0.0443374 0.110682
LeftToes  -7.45818e-011 -3.37383e-011 1.08613e-011
701
root  -7.3189 39.6549 9.52815 -106.01 -84.0312 104.003
RightUpLeg  1.02773 23.619 -4.29369
RightLeg  44.7355 9.86701 10.0277
RightFoot  42.1778 -11.63 23.4623
RightToes  -5.8209e-011 0 -3.6325e-017
Spine  -22.5316 5.71078 17.9273
Spine1  17.4473 3.74367 -7.38007
HEad  -1.45761 -15.6099 -2.49247
LeftShoulder1  7.87474 -16.0027 -34.3271
LeftArm  -8.81534 14.4827 -41.8007
LeftForeArm  94.9853 -80.4948 -71.6133
LeftHand  -0.246645 0.021 5.37786
RightShoulder  6.08359 13.6372 29.5083
RightArm  48.8241 28.1101 73.6106
RightForeArm  54.3333 67.6419 21.5147
RightHand  -0.24729 -0.0210522 -5.37781
LeftUpLeg  -7.45535 -2.83926 -7.41913
LeftLeg  34.3443 -64.4915 -32.8139
LeftFoot  4.59104 -0.0809291 0.379208
LeftToes  -7.45818e-011 -3.37383e-011 1.08613e-011
702
root  -7.35782 39.6516 9.50152 -110.585 -83.8342 108.568
RightUpLeg  0.981238 23.8055 -4.42005
RightLeg  44.7854 9.8755 10.0537
RightFoot  42.1568 -11.6474 23.5058
RightToes  -5.8209e-011 0 -3.6325e-017
Spine  -22.9696 5.34813 17.0258
Spine1  18.127 3.20858 -6.43033
HEad  -1.56813 -14.854 -2.62278
LeftShoulder1  7.96142 -16.1343 -34.4949
LeftArm  -7.78583 14.9157 -42.0038
LeftForeArm  90.5949 -80.2326 -67.7184
LeftHand  -0.246645 0.021 5.37786
RightShoulder  6.03236 13.5932 29.296
RightArm  48.2521 27.2465 72.7067
RightForeArm  54.9835 67.9711 21.8586
RightHand  -0.24729 -0.0210522 -5.37781
LeftUpLeg  -7.38228 -2.71804 -7.39529
LeftLeg  34.0131 -64.1732 -32.4486
LeftFoot  4.45292 -0.0983364 0.514047
LeftToes  -7.45818e-011 -3.37383e-011 1.08613e-011
